<svg version="1.2" xmlns="http://www.w3.org/2000/svg" viewBox="0 0 38 44" width="38" height="44">
	<title>notification-svg</title>
	<style>
		.s0 { fill: #000000 } 
	</style>
	<g>
		<path fill-rule="evenodd" class="s0" d="m24.7 1.1c1.9 0.8 3.5 1.9 4.9 3.3 1.4 1.4 2.5 3 3.3 4.9 0.7 1.8 1.1 3.7 1.1 5.7v11.7l3.3 5c0.4 0.6 0.7 1.3 0.7 2 0 0.8-0.1 1.5-0.5 2.1-0.3 0.7-0.9 1.2-1.5 1.6-0.6 0.4-1.3 0.6-2.1 0.6h-8.9c0 1.6-0.6 3.1-1.8 4.2-1.1 1.2-2.6 1.8-4.2 1.8-1.6 0-3.1-0.6-4.2-1.8-1.2-1.1-1.8-2.6-1.8-4.2h-8.9c-0.8 0-1.5-0.2-2.1-0.6-0.6-0.4-1.1-0.9-1.5-1.5-0.3-0.7-0.5-1.4-0.5-2.1 0.1-0.8 0.3-1.5 0.7-2.1l3.3-5v-11.7c0-2 0.4-3.9 1.1-5.7 0.8-1.9 1.9-3.5 3.3-4.9 1.4-1.4 3-2.5 4.9-3.3 1.8-0.7 3.7-1.1 5.7-1.1 2 0 3.9 0.4 5.7 1.1zm-4.2 40.6q0.8-0.3 1.3-0.9 0.6-0.5 0.9-1.3 0.3-0.7 0.3-1.5h-8q0 0.8 0.3 1.5 0.3 0.8 0.9 1.3 0.5 0.6 1.3 0.9 0.7 0.3 1.5 0.3 0.8 0 1.5-0.3zm11.7-14.2q-0.1 0-0.1-0.1 0 0-0.1-0.1 0-0.1 0-0.2 0 0 0-0.1v-12c0-3.4-1.4-6.8-3.8-9.2-2.4-2.4-5.8-3.8-9.2-3.8-3.4 0-6.8 1.4-9.2 3.8-2.4 2.4-3.8 5.8-3.8 9.2v12q0 0.1 0 0.1 0 0.1 0 0.2-0.1 0.1-0.1 0.1 0 0.1-0.1 0.1l-3.4 5.3q-0.1 0.1-0.2 0.2-0.1 0.2-0.1 0.3-0.1 0.2-0.1 0.3 0 0.2 0 0.3 0 0.4 0.2 0.8 0.1 0.4 0.4 0.7 0.3 0.3 0.7 0.4 0.4 0.2 0.8 0.2h29.8q0.4 0 0.8-0.2 0.4-0.1 0.7-0.4 0.3-0.3 0.4-0.7 0.2-0.4 0.2-0.8 0-0.1 0-0.3 0-0.1-0.1-0.3 0-0.1-0.1-0.3-0.1-0.1-0.2-0.2z"/>
	</g>
</svg>